<?xml version="1.0" ?><svg xmlns="http://www.w3.org/2000/svg" xmlns:xlink="http://www.w3.org/1999/xlink" viewBox="0 0 512 512"><defs><style>.cls-1{fill:none;}.cls-2{isolation:isolate;}.cls-3{clip-path:url(#clip-path);}.cls-4{fill:#2688e1;}.cls-5{fill:#efefef;}.cls-6{fill:#dc171b;}.cls-7{fill:#e5cb02;}.cls-8{clip-path:url(#clip-path-2);}</style><clipPath id="clip-path"><path class="cls-1" d="M35.312,126.172a238.5,238.5,0,0,1,20.158-29.4c3.83-4.6,8.853-10.824,12.993-15.15,5.794-6.054,13.945-13.71,20.084-19.414a181.612,181.612,0,0,1,21.019-16.368,369.807,369.807,0,0,1,33.411-19.711A192.3,192.3,0,0,1,165.61,16.34c5.419-1.83,12.584-4.469,18.084-6.036,6.591-1.877,15.442-4.225,22.188-5.432,5.577-1,13.02-2.32,18.646-2.991,6.24-.745,14.6-1.424,20.878-1.722C250.8-.1,258-.123,263.4.038c5.61.168,13.081.69,18.669,1.218a254.823,254.823,0,0,1,64.845,15.4c11.135,4.543,20.751,8.468,28.883,13.1,4.105,2.339,9.652,5.335,13.683,7.8s9.256,6.054,13.222,8.65,8.951,6.53,12.688,9.459a257.065,257.065,0,0,1,24.5,22.187c3.431,3.56,7.894,8.418,11.087,12.191,3.528,4.17,8.128,9.831,11.307,14.274a255.555,255.555,0,0,1,19.927,31.756c5.193,9.776,10.774,23.486,14.876,33.768,5.788,16.18,2.938,35.721-9.974,57.659-43,73.071-181.358,145.069-309.022,160.811C305.751,372.566,444.1,300.568,487.109,227.5c12.911-21.938,15.762-41.479,9.974-57.659,1.6,5,3.979,11.6,5.338,16.679,1.923,7.179,4.215,16.831,5.592,24.134a293.767,293.767,0,0,1,3.981,38.282c.324,7.984-.15,18.653-.654,26.627-.371,5.868-1.566,13.629-2.26,19.467-.991,8.352-3.675,19.29-5.817,27.423a227.3,227.3,0,0,1-9.047,27.293c-4.672,11.1-11.214,25.88-17.617,36.084-5.684,9.059-13.315,21.182-20.156,29.4-3.83,4.6-8.854,10.824-12.994,15.149-5.793,6.055-13.746,13.93-20.083,19.414-6.042,5.23-14.309,12.024-21.018,16.367-4.9,3.174-11.318,7.611-16.381,10.525-6.46,3.717-15.165,8.569-21.993,11.558-13.154,5.76-21.845,9.565-39.531,14.524a257.784,257.784,0,0,1-39.518,7.641,287.833,287.833,0,0,1-36.407,1.551,248.114,248.114,0,0,1-36.117-3.614c-4.9-.927-11.426-2.2-16.272-3.363-4.821-1.16-11.243-2.784-15.935-4.39-4.562-1.561-10.74-3.395-15.191-5.248-4.414-1.838-10.356-4.16-14.71-6.135-4.315-1.957-9.987-4.747-14.173-6.966s-9.652-5.335-13.684-7.8-9.257-6.053-13.222-8.65c-4.032-2.641-9.115-6.594-12.875-9.609-7.521-6.03-16.906-14.848-23.836-21.548A155.6,155.6,0,0,1,60.94,421.955c-3.433-4.249-8.062-9.879-11.307-14.274-3.07-4.157-6.828-9.938-9.729-14.214-3.418-5.037-7.334-12.171-10.2-17.542A258.045,258.045,0,0,1,9.491,325.478,222.815,222.815,0,0,1,3.9,301.344C2.149,289.931.625,274.587-.082,263.063c-.489-7.976.151-18.653.655-26.627.371-5.868,1.5-13.637,2.259-19.467,1.08-8.34,3.753-19.269,5.817-27.422,1.465-5.784,3.922-13.367,5.931-18.985,2.922-8.166,7.532-18.794,11.2-26.652C28.338,138.437,32.271,131.392,35.312,126.172Z"/></clipPath><clipPath id="clip-path-2"><path class="cls-1" d="M14.83,342.157a312.247,312.247,0,0,1-9.85-35.206,303.687,303.687,0,0,1-4.836-38.13c-.429-7.549-.307-17.649-.023-25.205.22-5.863,1.172-13.641,1.7-19.484A198.958,198.958,0,0,1,6.613,197.6c2.024-8.209,5.263-19.023,7.967-27.034,1.92-5.687,5.194-13.006,7.432-18.575,3.248-8.084,8.908-18.291,13.3-25.815A298.171,298.171,0,0,1,58.3,93.265c6.638-8.239,16.2-18.728,24.2-25.652,6.3-5.452,14.526-12.989,21.4-17.7,4.827-3.311,11.121-7.948,16.121-10.991a258.1,258.1,0,0,1,22.96-12.794c17.61-8.15,24.563-11.019,40.717-15.822,5.443-1.618,12.787-3.493,18.348-4.64,6.7-1.382,15.7-2.907,22.486-3.783a269.737,269.737,0,0,1,36.518-1.9c5.938.134,13.852.592,19.765,1.149,5.469.516,12.748,1.431,18.151,2.427,4.9.9,11.437,2.168,16.287,3.329,4.934,1.18,11.508,2.831,16.309,4.468,4.565,1.556,10.744,3.387,15.2,5.239,4.412,1.835,10.352,4.148,14.7,6.121s10.094,4.791,14.324,7.034c4.177,2.214,9.658,5.338,13.693,7.8s9.236,6.04,13.194,8.63c3.981,2.6,9,6.508,12.716,9.479,7.527,6.019,16.911,14.835,23.852,21.523,3.61,3.478,8,8.537,11.283,12.327,3.425,3.956,7.761,9.43,10.887,13.625,3.082,4.136,6.856,9.891,9.793,14.131,3,4.333,6.357,10.529,9,15.089,2.961,5.107,6.4,12.207,8.821,17.589,2.644,5.871,5.858,13.841,8.06,19.892-13.492-37.714-73.918-57.167-163.256-46.151,89.338-11.016,149.764,8.437,163.256,46.151,3.312,10.455,7.7,24.452,9.849,35.206a303.687,303.687,0,0,1,4.836,38.13c.43,7.55.308,17.649.024,25.205-.221,5.864-1.172,13.641-1.7,19.485A198.771,198.771,0,0,1,505.3,314.4c-2.024,8.21-5.263,19.025-7.967,27.036-1.92,5.687-5.194,13.006-7.432,18.576-3.248,8.084-8.908,18.291-13.3,25.815a298.163,298.163,0,0,1-22.984,32.907c-6.638,8.238-16.2,18.727-24.2,25.65-6.3,5.452-14.526,12.989-21.4,17.7-4.827,3.311-11.121,7.948-16.121,10.991a258.1,258.1,0,0,1-22.96,12.794c-17.6,8.145-24.557,11.017-40.717,15.821-5.442,1.618-12.787,3.493-18.347,4.641-6.7,1.382-15.7,2.907-22.486,3.783a269.907,269.907,0,0,1-36.518,1.9c-5.938-.134-13.852-.591-19.766-1.149-5.469-.516-12.748-1.431-18.151-2.426-4.9-.9-11.436-2.169-16.287-3.329-4.934-1.181-11.508-2.832-16.309-4.469-4.565-1.556-10.744-3.387-15.2-5.239-4.412-1.835-10.353-4.148-14.7-6.121s-10.094-4.792-14.324-7.034c-4.178-2.214-9.659-5.338-13.694-7.8s-9.236-6.04-13.194-8.63c-3.981-2.6-9-6.508-12.715-9.479C89,450.314,79.615,441.5,72.674,434.811c-3.611-3.478-8-8.538-11.283-12.328-3.425-3.955-7.761-9.43-10.888-13.625-3.081-4.136-6.856-9.891-9.793-14.131-3-4.332-6.356-10.529-9-15.089-2.96-5.107-6.4-12.207-8.821-17.589C20.245,356.178,16.9,348.253,14.83,342.157Z"/></clipPath></defs><title/><g id="beach_ball2" data-name="beach ball2"><g class="cls-2"><g class="cls-2"><g class="cls-3"><path class="cls-4" d="M178.083,388.3h0c27.369-111.572,84.418-261.25,127.423-334.319C322.6,24.95,334.9,12.378,341.8,14.769l-10.243-3.414c-20.88-5.745-21.279-5.854-32.6-7.8C276.848.546,275.985.428,263.4.038,240.08.194,238.684.2,224.528,1.881,200.745,5.7,198.8,6.008,183.694,10.3c-22.844,7.625-25.232,8.422-40.717,15.822C121.723,37.591,118.992,39.065,103.9,49.911L91.485,59.7A88.619,88.619,0,0,0,72.16,82.758c-43,73.07,4.416,209.866,105.923,305.546"/><path class="cls-5" d="M178.088,388.3l0,0C305.752,372.556,444.1,300.553,487.1,227.483c12.912-21.939,15.762-41.481,9.973-57.66-9.033-22.639-9.386-23.523-16.141-36.125-11.762-19.988-11.987-20.37-19.527-30.561-13.938-17.492-13.938-17.492-22-25.777C423.9,62.435,423.9,62.435,415.387,55.662c-16.909-12.606-16.909-12.606-25.91-18.109C371.2,27.136,371.2,27.136,361.611,22.783c-5.917-2.467-13.8-5.8-19.81-8.014-6.9-2.391-19.2,10.181-36.29,39.216C262.506,127.054,205.457,276.732,178.088,388.3"/><path class="cls-6" d="M178.086,388.312l0,0h0c-89.341,11.01-149.768-8.449-163.258-46.167l.006.016c9.033,22.642,9.386,23.526,16.147,36.14,11.762,19.988,11.986,20.37,19.526,30.561,13.939,17.492,13.939,17.492,22,25.778,15.509,14.925,15.509,14.925,24.024,21.7,16.908,12.606,16.908,12.606,25.909,18.109,18.277,10.417,18.277,10.417,27.867,14.77,5.92,2.469,13.8,5.8,19.821,8.019-10.472-3.627-8.527-41.679,7.962-108.92"/><path class="cls-5" d="M178.082,388.308v0C76.576,292.624,29.155,155.828,72.16,82.758A88.619,88.619,0,0,1,91.485,59.7c-7.06,6.412-16.374,15.082-23.022,21.92-15.477,18.046-19.155,22.334-33.151,44.553-11.98,22.3-13.519,25.164-20.732,44.39C7.151,194.344,6.2,197.4,2.832,216.969-.04,241.72-.34,244.307-.082,263.063c1.634,24.772,1.767,26.8,5.062,43.888,2.593,10.651,6.5,24.75,9.844,35.19,13.49,37.718,73.917,57.177,163.258,46.167"/><path class="cls-7" d="M178.091,388.307v0C289.347,488.249,376.209,486.9,420.4,452.322c7.068-6.418,16.394-15.1,23.049-21.944,15.477-18.045,19.154-22.332,33.15-44.551,11.981-22.3,13.52-25.164,20.733-44.391,7.43-23.783,8.384-26.839,11.748-46.409,2.872-24.751,3.173-27.338,2.914-46.094-1.633-24.773-1.767-26.8-5.062-43.889-2.594-10.656-6.506-24.761-9.849-35.206C520.251,259.231,337.017,368.7,178.091,388.307"/><path class="cls-5" d="M178.09,388.311h0c-16.489,67.241-18.434,105.293-7.962,108.92l10.232,3.409c20.88,5.745,21.279,5.855,32.6,7.8,22.115,3.012,22.978,3.129,35.566,3.519,23.317-.156,24.713-.165,38.869-1.842,23.783-3.816,25.725-4.128,40.833-8.424,22.845-7.625,25.233-8.422,40.717-15.821,21.254-11.466,23.985-12.939,39.081-23.785l12.382-9.764c-71.021,51.81-171.737.9-242.31-64.011"/></g></g><g class="cls-2"><g class="cls-8"><path class="cls-5" d="M397.293,121.057c8.267,23.11,2.2,44.941-13.684,58.273-7.942,6.665-18.338,11.206-30.627,12.721a80.489,80.489,0,0,1-36.76-4.413c-23.679-8.454-44.187-27.008-52.454-50.116v0c-8.264-23.106-2.2-44.933,13.679-58.265,7.942-6.667,18.341-11.209,30.633-12.725a80.48,80.48,0,0,1,36.764,4.415c23.676,8.454,44.181,27,52.448,50.11a361.157,361.157,0,0,0-63.453,2.633.013.013,0,0,0-.014-.008.008.008,0,0,0-.007.011.013.013,0,0,0,.014.008.009.009,0,0,0,.007-.011,361.151,361.151,0,0,1,63.455-2.629"/><path class="cls-4" d="M91.485,59.7,103.9,49.911C124.357,35.96,126.5,34.5,142.977,26.126,165.491,16.1,167.33,15.284,183.694,10.3c23.8-6.019,25.225-6.379,40.834-8.423C249.006-.253,249.474-.294,263.4.038c22.9,1.437,23.336,1.465,35.565,3.52,21.724,4.44,21.724,4.44,32.6,7.8L341.8,14.769c7.311,2.532,8.567,21.851,3.042,56.174a80.48,80.48,0,0,0-36.764-4.415c-12.292,1.516-22.691,6.058-30.633,12.725C205.137,32.713,133.157,24.631,91.485,59.7"/><path class="cls-5" d="M341.8,14.769c5.968,2.341,13.945,5.426,19.81,8.014,18.888,9.283,18.888,9.283,27.866,14.77,17.632,11.532,17.632,11.532,25.91,18.109,16.075,13.612,16.382,13.872,24.023,21.7,14.73,16.109,15.012,16.417,22,25.777,12.844,18.532,13.345,19.256,19.527,30.561,10.51,21.116,11.139,22.38,16.141,36.125-9.986-27.912-45.684-45.818-99.786-48.77-8.267-23.105-28.772-41.656-52.448-50.11,5.525-34.323,4.269-53.642-3.042-56.174"/><path class="cls-6" d="M170.124,497.232c-5.971-2.343-13.952-5.429-19.821-8.019-18.889-9.283-18.889-9.283-27.867-14.77C104.8,462.91,104.8,462.91,96.527,456.334c-16.076-13.613-16.383-13.873-24.024-21.7-14.731-16.111-15.012-16.418-22-25.778C37.659,390.325,37.158,389.6,30.977,378.3c-10.512-21.119-11.141-22.383-16.147-36.14l-.006-.016c-5.786-16.179-2.936-35.718,9.973-57.652C59.986,224.7,159,165.637,263.767,137.518v0c8.267,23.108,28.775,41.662,52.454,50.116C286.187,287.161,241.6,398.232,206.415,458.02c-17.087,29.032-29.387,41.6-36.291,39.212"/><path class="cls-5" d="M14.824,342.141c-3.31-10.45-7.283-24.531-9.844-35.19C1.016,283,.6,280.5-.082,263.063c.253-24.3.286-27.422,2.914-46.094,4.753-24.352,5.364-27.48,11.748-46.407,9.161-22.9,10.569-26.418,20.732-44.39,12.913-20.107,15.981-24.885,33.151-44.553C75.214,74.883,84.329,66,91.485,59.7c41.672-35.068,113.652-26.986,185.961,19.554-15.882,13.332-21.943,35.159-13.679,58.265C159,165.637,59.986,224.7,24.8,284.489c-12.909,21.934-15.759,41.473-9.973,57.652"/><path class="cls-7" d="M497.083,169.838c3.312,10.455,7.287,24.542,9.849,35.206C510.9,229,511.31,231.5,511.994,248.933c-.253,24.3-.285,27.422-2.914,46.094-4.753,24.353-5.364,27.481-11.748,46.409-9.16,22.9-10.568,26.416-20.733,44.391-12.912,20.107-15.98,24.884-33.15,44.551-6.758,6.744-15.884,15.634-23.049,21.944,57.326-55.49,42.884-162.646-36.791-272.992C399.5,166,405.56,144.167,397.293,121.057c21.021,1.762,84.993,7.123,99.79,48.781"/><path class="cls-5" d="M420.4,452.322l-12.382,9.764c-20.461,13.95-22.6,15.409-39.081,23.785-22.513,10.022-24.352,10.841-40.717,15.821-23.8,6.019-25.225,6.38-40.833,8.424-24.479,2.133-24.947,2.174-38.869,1.842-22.9-1.437-23.336-1.464-35.566-3.519-21.724-4.44-21.724-4.44-32.6-7.8l-10.232-3.409c6.9,2.391,19.2-10.18,36.291-39.212,35.188-59.788,79.772-170.859,109.807-270.382a80.489,80.489,0,0,0,36.76,4.413c12.289-1.515,22.685-6.056,30.627-12.721,93.17,129.958,85.613,230.751,36.791,272.992"/></g></g></g></g></svg>